<svg xmlns="http://www.w3.org/2000/svg" version="1.1" xmlns:xlink="http://www.w3.org/1999/xlink" width="200" height="200"><svg xmlns="http://www.w3.org/2000/svg" version="1.1" xmlns:xlink="http://www.w3.org/1999/xlink" viewBox="0 0 200 200"><rect width="200" height="200" fill="url('#gradient')"></rect><defs><linearGradient id="SvgjsLinearGradient1001" gradientTransform="rotate(77 0.5 0.5)"><stop offset="0%" stop-color="#fafdfc"></stop><stop offset="100%" stop-color="#ffffff"></stop></linearGradient></defs><g><g fill="#269b6c" transform="matrix(2.8394002901821698,0,0,2.8394002901821698,10.287468530115888,120.8590275579665)" stroke="#d7cd65" stroke-width="0.65"><path d="M4.73-14.22L4.73 0L1.31 0L1.31-14.22L4.73-14.22ZM6.89-10.57L9.98-10.57L10.09-9.33Q11.18-10.76 13.11-10.76L13.11-10.76Q14.76-10.76 15.57-9.78Q16.39-8.79 16.42-6.81L16.42-6.81L16.42 0L13.12 0L13.12-6.67Q13.12-7.47 12.79-7.85Q12.47-8.22 11.62-8.22L11.62-8.22Q10.65-8.22 10.19-7.46L10.19-7.46L10.19 0L6.89 0L6.89-10.57ZM27.34-8.30L27.34-5.66L21.82-5.66L21.82 0L18.39 0L18.39-14.22L27.90-14.22L27.90-11.57L21.82-11.57L21.82-8.30L27.34-8.30ZM34.08 0.20L34.08 0.20Q31.65 0.20 30.15-1.25Q28.64-2.71 28.64-5.03L28.64-5.03L28.64-5.30Q28.64-6.92 29.24-8.16Q29.84-9.40 31.00-10.08Q32.15-10.76 33.73-10.76L33.73-10.76Q35.96-10.76 37.25-9.38Q38.54-8.00 38.54-5.53L38.54-5.53L38.54-4.25L31.99-4.25Q32.17-3.36 32.76-2.85Q33.36-2.34 34.31-2.34L34.31-2.34Q35.87-2.34 36.75-3.44L36.75-3.44L38.25-1.66Q37.64-0.81 36.51-0.31Q35.38 0.20 34.08 0.20ZM33.71-8.22L33.71-8.22Q32.27-8.22 31.99-6.31L31.99-6.31L35.31-6.31L35.31-6.56Q35.33-7.35 34.91-7.79Q34.49-8.22 33.71-8.22ZM43.33-10.57L43.33 0L40.03 0L40.03-10.57L43.33-10.57ZM39.83-13.29L39.83-13.29Q39.83-13.99 40.34-14.44Q40.85-14.89 41.66-14.89Q42.47-14.89 42.98-14.44Q43.49-13.99 43.49-13.29Q43.49-12.59 42.98-12.14Q42.47-11.69 41.66-11.69Q40.85-11.69 40.34-12.14Q39.83-12.59 39.83-13.29ZM51.81-10.64L51.75-7.59L50.66-7.67Q49.11-7.67 48.67-6.69L48.67-6.69L48.67 0L45.38 0L45.38-10.57L48.47-10.57L48.57-9.21Q49.40-10.76 50.89-10.76L50.89-10.76Q51.42-10.76 51.81-10.64L51.81-10.64ZM61.88 0L58.59 0Q58.42-0.32 58.28-0.95L58.28-0.95Q57.37 0.20 55.74 0.20L55.74 0.20Q54.25 0.20 53.20-0.71Q52.16-1.61 52.16-2.98L52.16-2.98Q52.16-4.70 53.43-5.58Q54.70-6.46 57.12-6.46L57.12-6.46L58.13-6.46L58.13-7.01Q58.13-8.47 56.88-8.47L56.88-8.47Q55.70-8.47 55.70-7.31L55.70-7.31L52.41-7.31Q52.41-8.85 53.72-9.80Q55.02-10.76 57.04-10.76Q59.06-10.76 60.23-9.78Q61.41-8.79 61.44-7.07L61.44-7.07L61.44-2.39Q61.46-0.94 61.88-0.17L61.88-0.17L61.88 0ZM56.53-2.15L56.53-2.15Q57.15-2.15 57.55-2.41Q57.96-2.68 58.13-3.01L58.13-3.01L58.13-4.70L57.18-4.70Q55.46-4.70 55.46-3.15L55.46-3.15Q55.46-2.71 55.76-2.43Q56.06-2.15 56.53-2.15Z"></path></g></g></svg><style>@media (prefers-color-scheme: light) { :root { filter: none; } }
@media (prefers-color-scheme: dark) { :root { filter: none; } }
</style></svg>